<svg width="64" height="64" viewBox="0 0 64 64" fill="none" xmlns="http://www.w3.org/2000/svg">
<path d="M4 19.82V44.17C4 46.54 5.27 48.72 7.32 49.9L28.73 62.13C30.76 63.29 33.24 63.29 35.27 62.13L56.68 49.9C58.73 48.73 60 46.54 60 44.17V19.82C60 17.45 58.73 15.27 56.68 14.1L35.27 1.87C33.24 0.71 30.76 0.71 28.73 1.87L7.32 14.1C5.27 15.27 4 17.46 4 19.82Z" fill="#00A88E"/>
<path fill-rule="evenodd" clip-rule="evenodd" d="M18 37.9452C18 46.0928 28.8842 50.7902 32 52V14L18 21.8176V37.3705" fill="#B455A0"/>
<path fill-rule="evenodd" clip-rule="evenodd" d="M17 21L31.999 12V11L17 19.714V21Z" fill="#008E77"/>
<path fill-rule="evenodd" clip-rule="evenodd" d="M19 22.013L31.999 14.504V12L17 20.713V36.881C17.001 47.598 31.96 52.718 31.999 52.732V50.562C29.106 49.4 19 44.778 19 36.952V22.013Z" fill="white"/>
<path fill-rule="evenodd" clip-rule="evenodd" d="M32 14V52C35.1155 50.7902 46 46.0928 46 37.9452V21.7458L32 14Z" fill="#A23293"/>
<path fill-rule="evenodd" clip-rule="evenodd" d="M47 21L32 12V11L47 19.714V21Z" fill="#008E77"/>
<path fill-rule="evenodd" clip-rule="evenodd" d="M45 21.944L32 14.504V12L47 20.713V36.881C46.999 47.598 32.039 52.718 32 52.732V50.562C34.893 49.4 45 44.778 45 36.882V21.944Z" fill="#E5E6E3"/>
<path fill-rule="evenodd" clip-rule="evenodd" d="M38.9425 29.1458C39.7885 28.6878 40.3695 27.8048 40.3695 26.7758C40.3695 25.2808 39.1535 24.0688 37.6535 24.0688C37.0505 24.0688 36.4975 24.2728 36.0465 24.6048C35.0745 23.6458 33.5815 23.0268 32.0535 23.0008C29.6035 22.9578 27.5455 24.6978 27.0885 27.0128L27.0025 27.0068C24.2785 26.9688 22.0385 29.1398 22.0005 31.8548C21.9625 34.5728 24.2725 36.9988 27.1915 36.9988L37.6165 36.9998H37.9465C40.1665 36.9998 41.9675 35.2718 41.9995 33.0718C42.0255 31.1758 40.7175 29.5718 38.9425 29.1458Z" fill="#6A1F5B"/>
<path fill-rule="evenodd" clip-rule="evenodd" d="M38.9425 30.1458C39.7885 29.6878 40.3695 28.8048 40.3695 27.7768C40.3695 26.2808 39.1535 25.0688 37.6535 25.0688C37.0505 25.0688 36.4975 25.2728 36.0465 25.6048C35.0745 24.6458 33.5815 24.0268 32.0535 24.0008C29.6035 23.9578 27.5455 25.6978 27.0885 28.0128L27.0025 28.0068C24.2785 27.9688 22.0385 30.1408 22.0005 32.8558C21.9625 35.5728 24.2725 37.9998 27.1915 37.9998H37.9465C40.1665 37.9998 41.9675 36.2728 41.9995 34.0728C42.0255 32.1758 40.7175 30.5728 38.9425 30.1458Z" fill="white"/>
<path fill-rule="evenodd" clip-rule="evenodd" d="M26 32.187L27.468 30.719L29.974 33.225L37.199 26L38.666 27.469L29.975 36.161L26 32.187Z" fill="#A23293"/>
</svg>
